<?xml version="1.0" encoding="UTF-8" standalone="no"?>
<!-- Created with Inkscape (http://www.inkscape.org/) -->

<svg
   xmlns:dc="http://purl.org/dc/elements/1.1/"
   xmlns:cc="http://creativecommons.org/ns#"
   xmlns:rdf="http://www.w3.org/1999/02/22-rdf-syntax-ns#"
   xmlns:svg="http://www.w3.org/2000/svg"
   xmlns="http://www.w3.org/2000/svg"
   xmlns:sodipodi="http://sodipodi.sourceforge.net/DTD/sodipodi-0.dtd"
   xmlns:inkscape="http://www.inkscape.org/namespaces/inkscape"
   width="66.792572mm"
   height="10.286752mm"
   viewBox="0 0 66.792572 10.286752"
   version="1.1"
   id="svg8"
   inkscape:version="0.92.5 (2060ec1f9f, 2020-04-08)"
   sodipodi:docname="logo.svg">
  <defs
     id="defs2" />
  <sodipodi:namedview
     id="base"
     pagecolor="#ffffff"
     bordercolor="#666666"
     borderopacity="1.0"
     inkscape:pageopacity="0.0"
     inkscape:pageshadow="2"
     inkscape:zoom="4"
     inkscape:cx="-9.1101818"
     inkscape:cy="13.953065"
     inkscape:document-units="mm"
     inkscape:current-layer="layer1"
     showgrid="false"
     inkscape:window-width="1866"
     inkscape:window-height="1163"
     inkscape:window-x="54"
     inkscape:window-y="0"
     inkscape:window-maximized="1"
     fit-margin-top="0"
     fit-margin-left="0"
     fit-margin-right="0"
     fit-margin-bottom="0" />
  <metadata
     id="metadata5">
    <rdf:RDF>
      <cc:Work
         rdf:about="">
        <dc:format>image/svg+xml</dc:format>
        <dc:type
           rdf:resource="http://purl.org/dc/dcmitype/StillImage" />
        <dc:title></dc:title>
      </cc:Work>
    </rdf:RDF>
  </metadata>
  <g
     inkscape:label="Layer 1"
     inkscape:groupmode="layer"
     id="layer1"
     transform="translate(-32.643292,-89.979617)">
    <text
       xml:space="preserve"
       style="font-style:normal;font-weight:normal;font-size:10.58333302px;line-height:1.25;font-family:sans-serif;letter-spacing:0px;word-spacing:0px;fill:#333333;fill-opacity:1;stroke:none;stroke-width:0.26458332"
       x="41.961315"
       y="98.151466"
       id="text817"><tspan
         sodipodi:role="line"
         id="tspan815"
         x="41.961315"
         y="98.151466"
         style="font-style:normal;font-variant:normal;font-weight:normal;font-stretch:normal;font-size:9.70138931px;font-family:FreeSans;-inkscape-font-specification:'FreeSans, Normal';font-variant-ligatures:normal;font-variant-caps:normal;font-variant-numeric:normal;font-feature-settings:normal;text-align:start;letter-spacing:0px;writing-mode:lr-tb;text-anchor:start;fill:#333333;stroke-width:0.26458332"
         dx="0 0 0 0 0 0 0 0 0.98000002 0 0 0 0">Clinical<tspan
   style="letter-spacing:-0.15875px"
   id="tspan2807">P</tspan>s<tspan
   id="tspan2579"
   style="letter-spacing:-0.88106251px;fill:#333333">y</tspan><tspan
   style="font-style:normal;font-variant:normal;font-weight:normal;font-stretch:normal;font-size:7.05555534px;font-family:FreeSans;-inkscape-font-specification:'FreeSans, Normal';font-variant-ligatures:normal;font-variant-caps:normal;font-variant-numeric:normal;font-feature-settings:normal;text-align:start;letter-spacing:-0.26458332px;writing-mode:lr-tb;text-anchor:start;fill:#808080"
   id="tspan2391">.</tspan>ch</tspan></text>
    <text
       xml:space="preserve"
       style="font-style:normal;font-weight:normal;font-size:10.58333302px;line-height:1.25;font-family:sans-serif;letter-spacing:0px;word-spacing:0px;fill:#000000;fill-opacity:1;stroke:none;stroke-width:0.26458332"
       x="54.790253"
       y="80.244415"
       id="text821"><tspan
         sodipodi:role="line"
         id="tspan819"
         x="54.790253"
         y="89.608185"
         style="stroke-width:0.26458332"></tspan></text>
    <text
       xml:space="preserve"
       style="font-style:normal;font-weight:normal;font-size:10.58333302px;line-height:1.25;font-family:sans-serif;letter-spacing:0px;word-spacing:0px;fill:#000000;fill-opacity:1;stroke:none;stroke-width:0.26458332"
       x="36.663689"
       y="97.428574"
       id="text889"><tspan
         sodipodi:role="line"
         id="tspan887"
         x="36.663689"
         y="106.79234"
         style="stroke-width:0.26458332"></tspan></text>
    <g
       transform="matrix(0.03330316,0,0,0.03330316,32.343618,89.681836)"
       style="display:inline"
       id="g12379">
      <ellipse
         ry="51.382175"
         rx="12.793956"
         cy="58.772034"
         cx="142.79706"
         inkscape:transform-center-y="-8.1973425"
         inkscape:transform-center-x="-5.2608304"
         transform="rotate(-25.879218,154.37994,143.20655)"
         id="path11069-5"
         style="fill:#ffffff;fill-opacity:1;fill-rule:nonzero;stroke:#000000;stroke-width:2;stroke-miterlimit:4;stroke-dasharray:none;stroke-opacity:1" />
      <ellipse
         ry="51.382175"
         rx="12.793956"
         cy="58.772034"
         cx="142.79706"
         inkscape:transform-center-y="-6.6565555"
         inkscape:transform-center-x="-7.1107684"
         transform="rotate(-11.680832,150.92788,116.21304)"
         id="path11069"
         style="fill:#ffffff;fill-opacity:1;fill-rule:nonzero;stroke:#000000;stroke-width:2;stroke-miterlimit:4;stroke-dasharray:none;stroke-opacity:1" />
      <ellipse
         ry="51.382175"
         rx="12.793956"
         cy="58.772034"
         cx="142.79706"
         inkscape:transform-center-y="-9.4274912"
         inkscape:transform-center-x="-2.448538"
         transform="rotate(-44.011082,151.0877,152.58652)"
         id="path11069-3"
         style="fill:#ffffff;fill-opacity:1;fill-rule:nonzero;stroke:#000000;stroke-width:2;stroke-miterlimit:4;stroke-dasharray:none;stroke-opacity:1" />
      <ellipse
         ry="51.382175"
         rx="12.793956"
         cy="58.772034"
         cx="142.79706"
         inkscape:transform-center-y="-9.7398286"
         inkscape:transform-center-x="-0.092072633"
         transform="rotate(-58.028837,152.704,147.94857)"
         id="path11069-54"
         style="fill:#ffffff;fill-opacity:1;fill-rule:nonzero;stroke:#000000;stroke-width:2;stroke-miterlimit:4;stroke-dasharray:none;stroke-opacity:1" />
      <ellipse
         ry="51.382175"
         rx="12.793956"
         cy="58.772034"
         cx="142.79706"
         inkscape:transform-center-y="-9.5675331"
         inkscape:transform-center-x="1.8262098"
         transform="rotate(-69.376842,149.38717,148.28746)"
         id="path11069-9"
         style="fill:#ffffff;fill-opacity:1;fill-rule:nonzero;stroke:#000000;stroke-width:2;stroke-miterlimit:4;stroke-dasharray:none;stroke-opacity:1" />
      <ellipse
         ry="51.382175"
         rx="12.793956"
         cy="58.772034"
         cx="142.79706"
         inkscape:transform-center-y="-5.6305167"
         inkscape:transform-center-x="7.9479563"
         transform="rotate(-113.25579,146.10603,148.01616)"
         id="path11069-92"
         style="fill:#ffffff;fill-opacity:1;fill-rule:nonzero;stroke:#000000;stroke-width:2;stroke-miterlimit:4;stroke-dasharray:none;stroke-opacity:1" />
      <ellipse
         ry="51.382175"
         rx="12.793956"
         cy="58.772034"
         cx="142.79706"
         inkscape:transform-center-y="-8.3283485"
         inkscape:transform-center-x="5.0508698"
         transform="rotate(-89.805876,149.55512,145.76621)"
         id="path11069-99"
         style="fill:#ffffff;fill-opacity:1;fill-rule:nonzero;stroke:#000000;stroke-width:2;stroke-miterlimit:4;stroke-dasharray:none;stroke-opacity:1" />
      <ellipse
         ry="51.382175"
         rx="12.793956"
         cy="58.772034"
         cx="142.79706"
         inkscape:transform-center-y="-8.5711896"
         inkscape:transform-center-x="4.626815"
         transform="rotate(-86.931067,144.47834,141.9679)"
         id="path11069-8"
         style="fill:#ffffff;fill-opacity:1;fill-rule:nonzero;stroke:#000000;stroke-width:2;stroke-miterlimit:4;stroke-dasharray:none;stroke-opacity:1" />
      <ellipse
         ry="51.382175"
         rx="12.793956"
         cy="58.772034"
         cx="142.79706"
         inkscape:transform-center-y="-7.5361456"
         inkscape:transform-center-x="6.1708455"
         transform="rotate(-97.882219,149.96841,146.65943)"
         id="path11069-51"
         style="fill:#ffffff;fill-opacity:1;fill-rule:nonzero;stroke:#000000;stroke-width:2;stroke-miterlimit:4;stroke-dasharray:none;stroke-opacity:1" />
      <ellipse
         ry="51.382175"
         rx="12.793956"
         cy="58.772034"
         cx="142.79706"
         inkscape:transform-center-y="1.7179614"
         inkscape:transform-center-x="-9.5875589"
         transform="rotate(41.588363,-89.078918,58.537415)"
         id="path11069-87"
         style="display:inline;fill:#ffffff;fill-opacity:1;fill-rule:nonzero;stroke:#000000;stroke-width:2;stroke-miterlimit:4;stroke-dasharray:none;stroke-opacity:1" />
      <ellipse
         ry="51.382175"
         rx="12.793956"
         cy="58.772034"
         cx="142.79706"
         inkscape:transform-center-y="4.5220869"
         inkscape:transform-center-x="-8.6269056"
         transform="rotate(59.092361,-12.406631,70.590069)"
         id="path11069-52"
         style="display:inline;fill:#ffffff;fill-opacity:1;fill-rule:nonzero;stroke:#000000;stroke-width:2;stroke-miterlimit:4;stroke-dasharray:none;stroke-opacity:1" />
      <ellipse
         ry="51.382175"
         rx="12.793956"
         cy="58.772034"
         cx="142.79706"
         inkscape:transform-center-y="-3.1366452"
         inkscape:transform-center-x="-9.221398"
         transform="rotate(12.643872,-689.57916,68.244881)"
         id="path11069-53"
         style="display:inline;fill:#ffffff;fill-opacity:1;fill-rule:nonzero;stroke:#000000;stroke-width:2;stroke-miterlimit:4;stroke-dasharray:none;stroke-opacity:1" />
      <ellipse
         ry="51.382175"
         rx="12.793956"
         cy="58.772034"
         cx="142.79706"
         inkscape:transform-center-y="1.7318295"
         inkscape:transform-center-x="-9.5850674"
         transform="rotate(41.671249,-95.609776,81.218659)"
         id="path11069-1"
         style="display:inline;fill:#ffffff;fill-opacity:1;fill-rule:nonzero;stroke:#000000;stroke-width:2;stroke-miterlimit:4;stroke-dasharray:none;stroke-opacity:1" />
      <ellipse
         ry="51.382175"
         rx="12.793956"
         cy="58.772034"
         cx="142.79706"
         inkscape:transform-center-y="-1.8935923"
         inkscape:transform-center-x="-9.5544262"
         transform="rotate(20.219357,-343.77753,55.875184)"
         id="path11069-7"
         style="display:inline;fill:#ffffff;fill-opacity:1;fill-rule:nonzero;stroke:#000000;stroke-width:2;stroke-miterlimit:4;stroke-dasharray:none;stroke-opacity:1" />
      <ellipse
         ry="51.382175"
         rx="12.793956"
         cy="58.772034"
         cx="142.79706"
         inkscape:transform-center-y="-8.6764593"
         inkscape:transform-center-x="-4.4262637"
         transform="rotate(-31.542221,159.19441,161.62802)"
         id="path11069-39"
         style="display:inline;fill:#ffffff;fill-opacity:1;fill-rule:nonzero;stroke:#000000;stroke-width:2;stroke-miterlimit:4;stroke-dasharray:none;stroke-opacity:1" />
      <ellipse
         ry="51.382175"
         rx="12.793956"
         cy="58.772034"
         cx="142.79706"
         inkscape:transform-center-y="-4.3422695"
         inkscape:transform-center-x="-8.7188019"
         transform="rotate(4.9546264,101.7888,227.29988)"
         id="path11069-6"
         style="display:inline;fill:#ffffff;fill-opacity:1;fill-rule:nonzero;stroke:#000000;stroke-width:2;stroke-miterlimit:4;stroke-dasharray:none;stroke-opacity:1" />
      <ellipse
         ry="51.382175"
         rx="12.793956"
         cy="58.772034"
         cx="142.79706"
         inkscape:transform-center-y="-5.6813892"
         inkscape:transform-center-x="-7.9116739"
         transform="rotate(-4.2526567,174.75051,76.985562)"
         id="path11069-16"
         style="display:inline;fill:#ffffff;fill-opacity:1;fill-rule:nonzero;stroke:#000000;stroke-width:2;stroke-miterlimit:4;stroke-dasharray:none;stroke-opacity:1" />
      <ellipse
         ry="51.382175"
         rx="12.793956"
         cy="58.772034"
         cx="142.79706"
         inkscape:transform-center-y="0.12585865"
         inkscape:transform-center-x="-9.739452"
         transform="rotate(32.169912,140.9016,154.17174)"
         id="path11069-2"
         style="display:inline;fill:#ffffff;fill-opacity:1;fill-rule:nonzero;stroke:#000000;stroke-width:2;stroke-miterlimit:4;stroke-dasharray:none;stroke-opacity:1" />
      <ellipse
         ry="51.382175"
         rx="12.793956"
         cy="58.772034"
         cx="142.79706"
         inkscape:transform-center-y="4.6580246"
         inkscape:transform-center-x="-8.5542766"
         transform="rotate(59.998998,150.39667,149.45692)"
         id="path11069-242"
         style="display:inline;fill:#ffffff;fill-opacity:1;fill-rule:nonzero;stroke:#000000;stroke-width:2;stroke-miterlimit:4;stroke-dasharray:none;stroke-opacity:1" />
      <ellipse
         ry="51.382175"
         rx="12.793956"
         cy="58.772034"
         cx="142.79706"
         inkscape:transform-center-y="-2.3850059"
         inkscape:transform-center-x="-9.443755"
         transform="rotate(17.255955,135.28657,163.7741)"
         id="path11069-0"
         style="display:inline;fill:#ffffff;fill-opacity:1;fill-rule:nonzero;stroke:#000000;stroke-width:2;stroke-miterlimit:4;stroke-dasharray:none;stroke-opacity:1" />
      <ellipse
         ry="51.382175"
         rx="12.793956"
         cy="58.772034"
         cx="142.79706"
         inkscape:transform-center-y="-9.7068697"
         inkscape:transform-center-x="0.80583503"
         transform="rotate(-63.316085,295.56008,62.055354)"
         id="path11069-249"
         style="display:inline;fill:#ffffff;fill-opacity:1;fill-rule:nonzero;stroke:#000000;stroke-width:2;stroke-miterlimit:4;stroke-dasharray:none;stroke-opacity:1" />
      <ellipse
         ry="51.382175"
         rx="12.793956"
         cy="58.772034"
         cx="142.79706"
         inkscape:transform-center-y="-9.1135977"
         inkscape:transform-center-x="3.4373353"
         transform="rotate(-79.235167,253.02141,55.306218)"
         id="path11069-73"
         style="display:inline;fill:#ffffff;fill-opacity:1;fill-rule:nonzero;stroke:#000000;stroke-width:2;stroke-miterlimit:4;stroke-dasharray:none;stroke-opacity:1" />
      <ellipse
         ry="51.382175"
         rx="12.793956"
         cy="58.772034"
         cx="142.79706"
         inkscape:transform-center-y="-8.0117287"
         inkscape:transform-center-x="5.5393958"
         transform="rotate(-93.230841,230.89184,51.388127)"
         id="path11069-24"
         style="display:inline;fill:#ffffff;fill-opacity:1;fill-rule:nonzero;stroke:#000000;stroke-width:2;stroke-miterlimit:4;stroke-dasharray:none;stroke-opacity:1" />
      <ellipse
         ry="51.382175"
         rx="12.793956"
         cy="58.772034"
         cx="142.79706"
         inkscape:transform-center-y="6.9177089"
         inkscape:transform-center-x="-6.8569758"
         transform="rotate(76.682181,147.79865,145.73985)"
         id="path11069-86"
         style="display:inline;fill:#ffffff;fill-opacity:1;fill-rule:nonzero;stroke:#000000;stroke-width:2;stroke-miterlimit:4;stroke-dasharray:none;stroke-opacity:1" />
      <ellipse
         ry="51.382175"
         rx="12.793956"
         cy="58.772034"
         cx="142.79706"
         inkscape:transform-center-y="3.4106104"
         inkscape:transform-center-x="-9.1236207"
         transform="rotate(51.926384,145.24412,148.73747)"
         id="path11069-4"
         style="display:inline;fill:#ffffff;fill-opacity:1;fill-rule:nonzero;stroke:#000000;stroke-width:2;stroke-miterlimit:4;stroke-dasharray:none;stroke-opacity:1" />
      <ellipse
         ry="51.382175"
         rx="12.793956"
         cy="58.772034"
         cx="142.79706"
         inkscape:transform-center-y="-9.6310047"
         inkscape:transform-center-x="1.4548354"
         transform="rotate(-67.160462,283.24392,55.176039)"
         id="path11069-98"
         style="display:inline;fill:#ffffff;fill-opacity:1;fill-rule:nonzero;stroke:#000000;stroke-width:2;stroke-miterlimit:4;stroke-dasharray:none;stroke-opacity:1" />
      <ellipse
         ry="51.382175"
         rx="12.793956"
         cy="58.772034"
         cx="142.79706"
         inkscape:transform-center-y="-9.5540272"
         inkscape:transform-center-x="-1.8956143"
         transform="rotate(-47.348136,347.61784,52.974018)"
         id="path11069-65"
         style="display:inline;fill:#ffffff;fill-opacity:1;fill-rule:nonzero;stroke:#000000;stroke-width:2;stroke-miterlimit:4;stroke-dasharray:none;stroke-opacity:1" />
      <ellipse
         ry="51.382175"
         rx="12.793956"
         cy="58.772034"
         cx="142.79706"
         inkscape:transform-center-y="-6.6565555"
         inkscape:transform-center-x="-7.1107684"
         transform="rotate(-11.680832,1022.0486,22.324667)"
         id="path11069-22"
         style="display:inline;fill:#ffffff;fill-opacity:1;fill-rule:nonzero;stroke:#000000;stroke-width:2;stroke-miterlimit:4;stroke-dasharray:none;stroke-opacity:1" />
      <ellipse
         ry="51.382175"
         rx="12.793956"
         cy="58.772034"
         cx="142.79706"
         inkscape:transform-center-y="-8.2667237"
         inkscape:transform-center-x="-5.1511151"
         transform="rotate(-26.642836,517.89672,43.359196)"
         id="path11069-25"
         style="display:inline;fill:#ffffff;fill-opacity:1;fill-rule:nonzero;stroke:#000000;stroke-width:2;stroke-miterlimit:4;stroke-dasharray:none;stroke-opacity:1" />
      <ellipse
         ry="51.382175"
         rx="12.793956"
         cy="58.772034"
         cx="142.79706"
         inkscape:transform-center-y="-5.2747622"
         inkscape:transform-center-x="-8.1883828"
         transform="rotate(-1.3591381,7728.3922,-105.47876)"
         id="path11069-542"
         style="display:inline;fill:#ffffff;fill-opacity:1;fill-rule:nonzero;stroke:#000000;stroke-width:2;stroke-miterlimit:4;stroke-dasharray:none;stroke-opacity:1" />
      <ellipse
         ry="47.04874"
         rx="46.842384"
         cy="155.96483"
         cx="153.32111"
         transform="translate(-6.1906236,-6.1906236)"
         id="path11067"
         style="fill:#fcef3c;fill-opacity:1;fill-rule:nonzero;stroke:#000000;stroke-width:2;stroke-miterlimit:4;stroke-dasharray:none;stroke-opacity:1" />
    </g>
    <path
       style="fill:#ff8080;fill-opacity:1;stroke-width:0.0625"
       d="M 15.51116,11.588207 C 14.690529,10.070399 13.916244,7.2271613 13.61765,4.6350819 13.474588,3.3931751 13.515375,1.6548905 13.700997,1.0829304 c 0.144208,-0.44435208 0.285564,-0.63534847 0.47022,-0.63534847 0.187825,0 0.491484,0.25967627 0.760622,0.65045217 l 0.240372,0.3490103 -0.102902,0.5783938 c -0.4608,2.5900807 -0.132464,6.9182118 0.709354,9.3507158 0.07261,0.209821 0.114303,0.410165 0.09264,0.44521 -0.08224,0.133067 -0.20517,0.05348 -0.360147,-0.233157 z"
       id="path2888"
       inkscape:connector-curvature="0"
       transform="matrix(0.26458333,0,0,0.26458333,32.643292,89.979617)" />
    <path
       style="fill:#ff8080;fill-opacity:1;stroke-width:0.0625"
       d="M 1.6041605,18.829931 C 1.0252733,18.628982 0.64351797,18.400924 0.48754012,18.162872 0.38833432,18.011465 0.3893229,17.993943 0.50605932,17.834629 0.57388498,17.742066 0.79765267,17.576276 1.0033208,17.466207 l 0.3739422,-0.200125 0.4966291,0.153227 c 0.9030639,0.278626 2.3118692,0.544293 3.3385489,0.629569 0.6227638,0.05173 0.5855609,0.07459 -0.4981367,0.306161 -0.4296875,0.09182 -1.1046875,0.267127 -1.5,0.389578 -0.3953125,0.122451 -0.803125,0.232073 -0.90625,0.243605 -0.103125,0.01153 -0.4198772,-0.0597 -0.7038938,-0.158291 z"
       id="path2890"
       inkscape:connector-curvature="0"
       transform="matrix(0.26458333,0,0,0.26458333,32.643292,89.979617)" />
    <path
       style="fill:#ff8080;fill-opacity:1;stroke-width:0.0625"
       d="m 20.775039,34.398479 c -0.262156,-0.269577 -0.44028,-0.543955 -0.69991,-1.078125 -0.426497,-0.877485 -0.817231,-1.920855 -0.767691,-2.049953 0.06374,-0.166104 0.04055,-3.196267 -0.03045,-3.979069 -0.09089,-1.002104 -0.282508,-2.186503 -0.465128,-2.875 -0.08206,-0.309375 -0.158674,-0.600728 -0.170254,-0.647451 -0.01419,-0.05727 0.111166,-0.12193 0.384684,-0.198429 0.223156,-0.06241 0.409469,-0.10856 0.414028,-0.102549 0.0046,0.006 0.108803,0.381579 0.231651,0.834595 0.285539,1.052956 0.798207,2.346793 1.431939,3.613834 0.464912,0.929512 0.508509,1.050663 0.618502,1.71875 0.361052,2.192972 0.270749,4.485026 -0.196459,4.986515 -0.205511,0.22059 -0.36571,0.172991 -0.750914,-0.223118 z"
       id="path2892"
       inkscape:connector-curvature="0"
       transform="matrix(0.26458333,0,0,0.26458333,32.643292,89.979617)" />
    <path
       style="fill:#ff8080;fill-opacity:1;stroke-width:0.0625"
       d="m 30.875233,26.633775 c -0.306802,-0.06463 -0.804272,-0.193112 -1.105488,-0.285512 -0.53294,-0.163482 -0.556592,-0.179013 -0.879678,-0.577639 -0.182607,-0.225302 -0.684388,-0.770466 -1.115069,-1.211475 -0.430681,-0.44101 -0.754119,-0.790664 -0.71875,-0.777011 0.03537,0.01365 0.459689,0.181549 0.942935,0.373101 1.305093,0.51732 3.349899,1.09986 3.874736,1.103864 0.261402,0.002 0.840385,0.764413 0.840385,1.10664 0,0.184225 -0.02947,0.225531 -0.216742,0.303778 -0.291906,0.121966 -0.941637,0.10765 -1.622329,-0.03575 z"
       id="path2894"
       inkscape:connector-curvature="0"
       transform="matrix(0.26458333,0,0,0.26458333,32.643292,89.979617)" />
    <path
       style="fill:#99ff55;fill-opacity:1;stroke-width:0.0625"
       d="m 25.308054,12.967368 c 0.03438,-0.03361 0.301563,-0.225277 0.59375,-0.425926 1.688707,-1.159654 3.779875,-3.0926133 4.54046,-4.1969495 0.211607,-0.3072437 0.246423,-0.3299842 0.660608,-0.4314856 0.614751,-0.1506524 1.22477,-0.1532427 1.449385,-0.00615 0.154222,0.1009919 0.171869,0.1434923 0.140316,0.3379306 -0.116722,0.7192724 -1.737599,2.2585595 -3.690662,3.5048855 -0.64692,0.412825 -0.782851,0.47324 -1.368912,0.608414 -0.572631,0.132078 -1.927859,0.507251 -2.26627,0.627381 -0.07939,0.02818 -0.09962,0.02194 -0.05868,-0.0181 z"
       id="path2896"
       inkscape:connector-curvature="0"
       transform="matrix(0.26458333,0,0,0.26458333,32.643292,89.979617)" />
    <path
       style="fill:#99ff55;fill-opacity:1;stroke-width:0.0625"
       d="m 30.718795,21.315573 c -0.530941,-0.04714 -0.679395,-0.09193 -1.5,-0.452554 -2.097372,-0.921712 -3.941757,-1.461996 -5.588536,-1.637074 -0.337372,-0.03587 -0.362356,-0.04919 -0.326844,-0.174225 0.02115,-0.07446 0.05628,-0.369767 0.07807,-0.656229 0.03702,-0.486626 0.05028,-0.52496 0.201845,-0.583527 0.209275,-0.08087 0.726207,-0.03921 1.662223,0.133948 0.578715,0.10706 1.128256,0.150113 2.40625,0.188514 1.629239,0.04896 1.670521,0.05349 2.53125,0.278203 2.092169,0.546203 3.756552,1.259565 4.303818,1.844637 0.159463,0.170478 0.289932,0.354696 0.289932,0.409373 0,0.160719 -0.27805,0.37234 -0.635792,0.483893 -0.712626,0.222215 -2.051207,0.28677 -3.422217,0.165041 z"
       id="path2898"
       inkscape:connector-curvature="0"
       transform="matrix(0.26458333,0,0,0.26458333,32.643292,89.979617)" />
    <path
       style="fill:#99ff55;fill-opacity:1;stroke-width:0.0625"
       d="M 9.0196421,11.238236 C 8.5860154,10.958064 7.849394,10.522529 7.3827056,10.27038 6.5718665,9.8322895 6.5178237,9.7906527 6.1658691,9.3328802 5.7355901,8.7732344 5.2561096,8.0611893 4.9761331,7.5660814 4.528097,6.7737782 4.336227,5.9441823 4.5583772,5.7598139 c 0.1827367,-0.151658 0.6942484,-0.037371 1.3674906,0.3055389 0.8705136,0.4433879 1.2041218,0.6997237 1.3329808,1.0242274 0.3824883,0.9632151 1.3651385,2.7593047 2.1534758,3.9361268 0.2705715,0.403906 0.470299,0.731575 0.443839,0.728154 -0.02646,-0.0034 -0.4028946,-0.235454 -0.8365213,-0.515625 z"
       id="path2900"
       inkscape:connector-curvature="0"
       transform="matrix(0.26458333,0,0,0.26458333,32.643292,89.979617)" />
    <path
       style="fill:#99ff55;fill-opacity:1;stroke-width:0.0625"
       d="m 3.3535708,27.120695 c -0.219977,-0.106015 -0.2369411,-0.318856 -0.054955,-0.689493 0.6445359,-1.312674 3.4294289,-3.445244 6.3844381,-4.88897 0.8510351,-0.415789 2.1710351,-0.96965 2.3109391,-0.96965 0.01472,0 0.155368,0.198815 0.312561,0.441811 0.157194,0.242997 0.418218,0.58337 0.580053,0.756384 l 0.294245,0.314573 -0.498898,0.47995 c -2.537102,2.44074 -8.0897858,5.152321 -9.3283832,4.555395 z"
       id="path2906"
       inkscape:connector-curvature="0"
       transform="matrix(0.26458333,0,0,0.26458333,32.643292,89.979617)" />
    <path
       style="fill:#ffdd55;fill-opacity:1;stroke-width:0.0625"
       d="m 19.62059,12.088936 c -0.206231,-0.08634 -0.567536,-0.202682 -0.802901,-0.258542 l -0.427936,-0.101562 0.04043,-0.5625 c 0.202559,-2.8181957 1.503524,-6.8464187 2.87787,-8.9108483 0.9038,-1.35761324 1.469158,-1.47794785 1.659344,-0.353186 0.342813,2.027405 -1.002278,7.0891273 -2.591642,9.7526213 -0.198612,0.33284 -0.365408,0.601975 -0.370657,0.598079 -0.0052,-0.0039 -0.178278,-0.07772 -0.384508,-0.164062 z"
       id="path2908"
       inkscape:connector-curvature="0"
       transform="matrix(0.26458333,0,0,0.26458333,32.643292,89.979617)" />
    <path
       style="fill:#ffdd55;fill-opacity:1;stroke-width:0.0625"
       d="m 23.180556,15.97203 c -0.0984,-0.317794 -0.310403,-0.833951 -0.443521,-1.079808 -0.18209,-0.336304 -0.21538,-0.303285 0.821019,-0.814352 2.120842,-1.045826 5.397593,-1.860415 7.974773,-1.982499 1.326111,-0.06282 2.37053,0.129766 2.553029,0.470768 0.177278,0.331247 -0.450587,0.919702 -1.590302,1.49048 -2.161286,1.08239 -5.554515,1.915085 -8.1392,1.997351 -1.079891,0.03437 -1.141106,0.0301 -1.175798,-0.08194 z"
       id="path2910"
       inkscape:connector-curvature="0"
       transform="matrix(0.26458333,0,0,0.26458333,32.643292,89.979617)" />
    <path
       style="fill:#ffdd55;fill-opacity:1;stroke-width:0.0625"
       d="m 29.338617,29.238771 c -1.356055,-0.478772 -3.36483,-1.921819 -5.268736,-3.784911 -0.451262,-0.441588 -0.767273,-0.831075 -1.196767,-1.475028 -0.320977,-0.48125 -0.758643,-1.081371 -0.97259,-1.333602 l -0.388996,-0.458602 0.248927,-0.260148 c 0.136909,-0.143081 0.368014,-0.420925 0.513566,-0.61743 l 0.264641,-0.357282 0.363093,0.183289 c 0.505414,0.255132 1.729119,1.085338 2.437549,1.653723 2.684655,2.153939 5.05374,5.042127 5.061017,6.169962 0.0029,0.449076 -0.332412,0.537515 -1.061704,0.280029 z"
       id="path2912"
       inkscape:connector-curvature="0"
       transform="matrix(0.26458333,0,0,0.26458333,32.643292,89.979617)" />
    <path
       style="fill:#ffdd55;fill-opacity:1;stroke-width:0.0625"
       d="m 13.006887,35.272604 c -0.278962,-0.308249 -0.453061,-1.405028 -0.396276,-2.496435 l 0.03656,-0.702662 0.353154,-0.600061 c 1.186459,-2.015966 2.357319,-5.260887 2.664244,-7.383685 0.05242,-0.362559 0.09854,-0.511824 0.151825,-0.491377 0.04209,0.01615 0.176968,0.04821 0.299722,0.07124 0.122754,0.02303 0.223188,0.05106 0.223188,0.06229 0,0.01123 -0.04447,0.212005 -0.09883,0.44617 -0.275402,1.186416 -0.352899,2.009985 -0.378229,4.019503 -0.02358,1.870944 -0.03269,1.997683 -0.183251,2.551154 -0.801614,2.946706 -2.103992,5.151628 -2.672107,4.523868 z"
       id="path2914"
       inkscape:connector-curvature="0"
       transform="matrix(0.26458333,0,0,0.26458333,32.643292,89.979617)" />
    <path
       style="fill:#ffdd55;fill-opacity:1;stroke-width:0.0625"
       d="M 6.4018043,17.848004 C 3.1674291,17.568518 1.1617778,17.07294 0.47152601,16.382688 0.23190722,16.143069 0.22690264,16.017657 0.44867933,15.81016 0.68131588,15.592503 0.9262952,15.476054 1.4723285,15.323579 c 1.9329283,-0.539756 5.4776233,-0.55108 8.2107258,-0.02623 0.5481177,0.105257 1.5313627,0.354183 1.7871357,0.452445 l 0.162136,0.06229 -0.110867,0.436563 c -0.06098,0.24011 -0.130384,0.634638 -0.154239,0.876729 l -0.04337,0.440165 -0.320396,0.07165 c -0.467194,0.10448 -3.9733379,0.265106 -4.6016467,0.210813 z"
       id="path2916"
       inkscape:connector-curvature="0"
       transform="matrix(0.26458333,0,0,0.26458333,32.643292,89.979617)" />
    <path
       style="fill:#8787de;fill-opacity:1;stroke-width:0.0625"
       d="m 13.901804,12.624493 c 0,-0.176662 -0.490221,-1.381617 -0.914903,-2.248814 C 12.460128,9.30001 12.012201,8.5183113 11.380681,7.5725819 11.000837,7.0037483 10.731806,6.6359242 9.8909986,5.5358566 9.5495553,5.0891305 9.2212586,3.1508907 9.3968953,2.6187064 9.5052537,2.290377 9.6071038,2.2267539 9.8881626,2.3118242 c 0.8334154,0.2522564 2.3785444,2.2642713 3.5600354,4.6357577 0.286734,0.575531 0.455495,1.0252321 0.640898,1.70781 0.280492,1.03266 0.579592,1.8753791 0.944169,2.6602161 0.133946,0.288353 0.243539,0.564119 0.243539,0.612815 0,0.0487 -0.151136,0.155377 -0.335857,0.23707 -0.184722,0.08169 -0.476114,0.234832 -0.647538,0.34031 -0.344032,0.211686 -0.391605,0.226104 -0.391605,0.11869 z"
       id="path2918"
       inkscape:connector-curvature="0"
       transform="matrix(0.26458333,0,0,0.26458333,32.643292,89.979617)" />
    <path
       style="fill:#8787de;fill-opacity:1;stroke-width:0.0625"
       d="m 32.228842,25.003546 c -2.013809,-0.234178 -5.526822,-1.518812 -6.670788,-2.439364 -0.903636,-0.727158 -1.837541,-1.358923 -2.51978,-1.704571 -0.182754,-0.09259 -0.323379,-0.18841 -0.3125,-0.212933 0.01088,-0.02452 0.118218,-0.291719 0.23853,-0.59377 l 0.21875,-0.549184 0.46875,0.03989 c 1.444267,0.122897 3.644736,0.785451 5.676756,1.709255 2.060696,0.93684 3.910251,2.173757 4.396202,2.940023 0.313454,0.494264 0.198262,0.716848 -0.423696,0.818702 -0.408505,0.0669 -0.429084,0.06674 -1.072224,-0.008 z"
       id="path2920"
       inkscape:connector-curvature="0"
       transform="matrix(0.26458333,0,0,0.26458333,32.643292,89.979617)" />
    <path
       style="fill:#8787de;fill-opacity:1;stroke-width:0.0625"
       d="m 7.0259249,31.677985 c -0.3244748,-0.160966 -0.2145583,-0.864199 0.2941983,-1.882248 0.7700842,-1.540977 2.6240005,-3.895089 4.2193578,-5.35776 0.70815,-0.649253 1.362323,-1.208709 1.362323,-1.165074 0,0.0154 -0.128599,0.264913 -0.285776,0.554467 -0.79614,1.46666 -1.635981,3.618053 -2.023181,5.182712 -0.07231,0.292187 -0.156553,0.59063 -0.187215,0.663207 -0.06865,0.162497 -1.1807987,1.065098 -1.8163277,1.474103 -0.7057706,0.454209 -1.3064235,0.658064 -1.5633794,0.530593 z"
       id="path2922"
       inkscape:connector-curvature="0"
       transform="matrix(0.26458333,0,0,0.26458333,32.643292,89.979617)" />
    <path
       style="fill:#808080;fill-opacity:1;stroke-width:0.0625"
       d="M 1.7376734,25.067493 C 1.2102438,24.941293 1.1598358,24.64766 1.575295,24.12162 2.0341369,23.54065 3.1070354,22.747012 4.3705543,22.053929 l 0.625,-0.342834 1.0788906,-0.103104 c 1.2004554,-0.114723 2.5333069,-0.333691 3.458135,-0.568123 0.335845,-0.08513 0.6336551,-0.15391 0.6618011,-0.152839 0.02815,0.0011 -0.3988267,0.233141 -0.9488267,0.515713 -1.753965,0.90113 -3.3557097,1.952269 -4.5921607,3.01359 -0.4845485,0.415917 -0.5349295,0.442682 -1.021266,0.542539 -0.6591447,0.13534 -1.5655843,0.187312 -1.8944542,0.108622 z"
       id="path2924"
       inkscape:connector-curvature="0"
       transform="matrix(0.26458333,0,0,0.26458333,32.643292,89.979617)" />
    <path
       style="fill:#808080;fill-opacity:1;stroke-width:0.25"
       d="m 15.141164,22.893804 c -5.2885587,-2.426015 -3.999416,-10.251393 1.767587,-10.729638 5.293063,-0.438942 8.174515,5.972337 4.325441,9.624178 -1.658966,1.573956 -4.104508,2.017652 -6.093028,1.10546 z"
       id="path2926"
       inkscape:connector-curvature="0"
       transform="matrix(0.26458333,0,0,0.26458333,32.643292,89.979617)" />
    <path
       style="fill:#808080;fill-opacity:1;stroke-width:0.01104854"
       d="m 17.006375,23.50539 c -1.827272,-0.123203 -3.495862,-1.115683 -4.478691,-2.663932 -1.079214,-1.700083 -1.201346,-3.838205 -0.322679,-5.649016 0.217477,-0.448191 0.484571,-0.856434 0.816822,-1.248486 0.13364,-0.157692 0.502172,-0.522356 0.663835,-0.656867 0.756785,-0.629679 1.621059,-1.046091 2.569297,-1.237903 0.404275,-0.08178 0.419869,-0.08292 1.132476,-0.08292 0.621876,0 0.652612,9.74e-4 0.812068,0.02572 1.106438,0.171724 2.065186,0.603991 2.905437,1.309965 0.176733,0.14849 0.526187,0.497657 0.672065,0.671513 1.25512,1.495837 1.68223,3.483733 1.14972,5.35113 -0.541024,1.897252 -2.026018,3.400275 -3.907448,3.954889 -0.6514,0.192022 -1.350982,0.270534 -2.012902,0.225904 z m 0.861671,-0.164069 c 0.839937,-0.09494 1.598887,-0.342673 2.303622,-0.751948 0.638353,-0.370724 1.231891,-0.894664 1.695869,-1.497009 0.650248,-0.844165 1.025033,-1.80512 1.122517,-2.878145 0.01742,-0.191708 0.01759,-0.691527 3.09e-4,-0.883884 -0.04283,-0.476676 -0.130108,-0.904459 -0.271719,-1.331742 -0.408912,-1.233818 -1.202885,-2.27638 -2.262106,-2.970357 -1.164846,-0.76318 -2.572267,-1.044341 -4.040704,-0.807211 -0.99917,0.16135 -1.879532,0.556436 -2.641273,1.185341 -0.16199,0.133742 -0.527831,0.499674 -0.664482,0.664649 -0.877961,1.059937 -1.342906,2.413402 -1.309418,3.811747 0.01165,0.486581 0.06514,0.880396 0.180078,1.325825 0.148677,0.576188 0.415601,1.172425 0.749353,1.673855 0.540606,0.812205 1.305409,1.471411 2.243236,1.93351 0.377127,0.185823 0.718368,0.310805 1.09933,0.402638 0.28215,0.06801 0.466418,0.09685 0.878359,0.137475 0.09014,0.0089 0.810399,-0.0027 0.917029,-0.01474 z"
       id="path2928"
       inkscape:connector-curvature="0"
       transform="matrix(0.26458333,0,0,0.26458333,32.643292,89.979617)" />
    <path
       style="fill:#808080;fill-opacity:1;stroke-width:0.01104854"
       d="m 17.155415,23.509736 c -0.209624,-0.0073 -0.517901,-0.04155 -0.77,-0.08547 -0.818638,-0.14261 -1.645433,-0.490152 -2.327584,-0.978396 -0.297809,-0.213154 -0.462634,-0.353949 -0.742526,-0.63427 -0.226288,-0.226635 -0.380599,-0.403441 -0.540942,-0.6198 -0.663412,-0.895174 -1.04773,-1.931395 -1.132987,-3.054823 -0.01683,-0.221797 -0.0073,-0.800234 0.01669,-1.016565 0.105687,-0.951599 0.425339,-1.83389 0.948678,-2.618505 0.228954,-0.343259 0.39538,-0.54368 0.725218,-0.873356 0.481936,-0.481698 0.923726,-0.7995 1.519829,-1.093288 0.479059,-0.236104 0.905205,-0.380395 1.447359,-0.490069 0.3406,-0.0689 0.324041,-0.06788 1.09933,-0.06788 h 0.712631 l 0.171253,0.03076 c 0.874996,0.157155 1.590873,0.436655 2.270476,0.886462 0.352519,0.233322 0.565546,0.409518 0.900778,0.745039 0.324787,0.325066 0.51132,0.552926 0.742725,0.907278 0.512589,0.784926 0.81564,1.638441 0.921621,2.595657 0.02521,0.227697 0.02865,0.897775 0.0057,1.115903 -0.05044,0.479933 -0.136486,0.880905 -0.283323,1.320301 -0.28365,0.848785 -0.748719,1.599382 -1.386642,2.237963 -0.235472,0.235716 -0.388188,0.369089 -0.631145,0.551208 -0.922268,0.691326 -2.000531,1.077163 -3.181025,1.138271 -0.205237,0.01062 -0.270968,0.01111 -0.486136,0.0036 z m -9.2e-4,-0.150959 c -0.0025,-0.0022 -0.07918,-0.0066 -0.170332,-0.0097 -0.09115,-0.0031 -0.140869,-0.0021 -0.110485,0.0023 0.05783,0.0083 0.288792,0.01442 0.280817,0.0074 z m 0.790891,-0.02348 c 0.201403,-0.02662 0.360279,-0.05228 0.355197,-0.05736 -0.0026,-0.0026 -0.07445,0.0058 -0.15959,0.01866 -0.08514,0.01289 -0.221158,0.03002 -0.302262,0.03805 -0.103026,0.0102 -0.127486,0.01492 -0.08117,0.01566 0.03646,5.75e-4 0.120982,-0.0062 0.187825,-0.01501 z m -1.15181,-0.0023 c -0.01367,-0.0026 -0.03605,-0.0026 -0.04972,0 -0.01367,0.0026 -0.0025,0.0048 0.02486,0.0048 0.02735,0 0.03853,-0.0022 0.02486,-0.0048 z m -0.104833,-0.01084 c -0.01056,-0.0028 -0.03045,-0.0029 -0.04419,-2.21e-4 -0.01374,0.0026 -0.0051,0.0049 0.01921,0.005 0.02431,1.21e-4 0.03555,-0.002 0.02499,-0.0048 z m -0.08852,-0.01107 c -0.01063,-0.0028 -0.02804,-0.0028 -0.03867,0 -0.01063,0.0028 -0.0019,0.0051 0.01934,0.0051 0.02127,0 0.02997,-0.0023 0.01933,-0.0051 z m -0.20716,-0.0322 c -0.08204,-0.01467 -0.228705,-0.04639 -0.325932,-0.07049 -0.09723,-0.0241 -0.189206,-0.04657 -0.204398,-0.04993 l -0.02762,-0.0061 0.02668,0.01168 c 0.0766,0.03353 0.572181,0.142004 0.647286,0.14168 0.01823,-1.1e-4 -0.03398,-0.01215 -0.11601,-0.02682 z m 1.958354,-0.0117 c -0.0076,-0.0031 -0.02003,-0.0031 -0.02762,0 -0.0076,0.0031 -0.0014,0.0056 0.01381,0.0056 0.01519,0 0.02141,-0.0025 0.01381,-0.0056 z m 0.05524,-0.01105 c -0.0076,-0.0031 -0.02003,-0.0031 -0.02762,0 -0.0076,0.0031 -0.0014,0.0056 0.01381,0.0056 0.01519,0 0.02141,-0.0025 0.01381,-0.0056 z m 0.05524,-0.01105 c -0.0076,-0.0031 -0.02003,-0.0031 -0.02762,0 -0.0076,0.0031 -0.0014,0.0056 0.01381,0.0056 0.01519,0 0.02141,-0.0025 0.01381,-0.0056 z m 0.05524,-0.01105 c -0.0076,-0.0031 -0.02003,-0.0031 -0.02762,0 -0.0076,0.0031 -0.0014,0.0056 0.01381,0.0056 0.01519,0 0.02141,-0.0025 0.01381,-0.0056 z m 0.04949,-0.01041 c -0.0037,-0.0037 -0.0132,-0.0041 -0.02118,-8.73e-4 -0.0088,0.0035 -0.0062,0.0061 0.0067,0.0067 0.01165,4.75e-4 0.01817,-0.0021 0.0145,-0.0058 z m 0.110872,-0.0229 c 0.04056,-0.01019 0.06893,-0.02001 0.06304,-0.02183 -0.0059,-0.0018 -0.04552,0.0061 -0.08805,0.01753 -0.04254,0.01146 -0.0709,0.02128 -0.06304,0.02183 0.0079,5.52e-4 0.04749,-0.0073 0.08805,-0.01753 z m 0.110099,-0.03234 c -0.0037,-0.0037 -0.0132,-0.0041 -0.02118,-8.73e-4 -0.0088,0.0035 -0.0062,0.0061 0.0067,0.0067 0.01165,4.75e-4 0.01817,-0.0021 0.0145,-0.0058 z m 0.06376,-0.01542 c 0.01393,-0.006 0.01597,-0.0095 0.0055,-0.0095 -0.0091,0 -0.02652,0.0043 -0.03867,0.0095 -0.01393,0.006 -0.01597,0.0095 -0.0055,0.0095 0.0091,0 0.02652,-0.0043 0.03867,-0.0095 z m -3.054922,-0.01657 c -0.02127,-0.0082 -0.04613,-0.01489 -0.05524,-0.01489 -0.0091,0 8.28e-4,0.0067 0.0221,0.01489 0.02127,0.0082 0.04613,0.01489 0.05524,0.01489 0.0091,0 -8.29e-4,-0.0067 -0.0221,-0.01489 z m 3.132262,-0.0055 c 0.01393,-0.006 0.01597,-0.0095 0.0055,-0.0095 -0.0091,0 -0.02652,0.0043 -0.03867,0.0095 -0.01393,0.006 -0.01597,0.0095 -0.0055,0.0095 0.0091,0 0.02652,-0.0043 0.03867,-0.0095 z m -3.263959,-0.03392 c -0.03294,-0.01169 -0.06183,-0.0193 -0.06422,-0.01692 -0.0056,0.0056 0.08583,0.03802 0.107528,0.03811 0.0091,0 -0.01037,-0.0095 -0.04331,-0.02119 z m 3.469891,-0.03157 c 0.169546,-0.05861 0.309977,-0.11282 0.305037,-0.11776 -0.0022,-0.0022 -0.0311,0.0065 -0.06416,0.01932 -0.03306,0.01286 -0.134686,0.04977 -0.225837,0.08203 -0.09115,0.03226 -0.160066,0.05891 -0.153145,0.05923 0.0069,3.09e-4 0.06907,-0.01895 0.138107,-0.04282 z m -3.592311,-0.01085 c -0.0091,-0.0052 -0.029,-0.01242 -0.04419,-0.01613 -0.02302,-0.0056 -0.0221,-0.0041 0.0055,0.0092 0.03541,0.01705 0.06638,0.02259 0.03867,0.0069 z m -0.116056,-0.04437 c -0.05133,-0.02287 -0.101884,-0.03941 -0.09383,-0.03071 0.008,0.0086 0.113872,0.05081 0.127025,0.0506 0.0061,-1.1e-4 -0.0089,-0.009 -0.03319,-0.01989 z m -0.13806,-0.05607 c -0.0091,-0.0059 -0.02154,-0.01071 -0.02762,-0.01071 -0.0061,0 -0.0036,0.0048 0.0055,0.01071 0.0091,0.0059 0.02154,0.01071 0.02762,0.01071 0.0061,0 0.0036,-0.0048 -0.0055,-0.01071 z m -0.07734,-0.03315 c -0.02127,-0.01164 -0.04364,-0.02117 -0.04972,-0.02117 -0.0061,0 0.0064,0.0095 0.02762,0.02117 0.02127,0.01164 0.04364,0.02117 0.04972,0.02117 0.0061,0 -0.0064,-0.0095 -0.02762,-0.02117 z m 4.405812,-0.0449 c 0.490957,-0.216807 0.975173,-0.52321 1.405722,-0.889516 0.161127,-0.137085 0.514852,-0.49088 0.656444,-0.656575 0.300402,-0.351538 0.5445,-0.717775 0.751116,-1.126952 0.09848,-0.195031 0.234329,-0.50521 0.225243,-0.514297 -0.0024,-0.0024 -0.03045,0.05977 -0.06241,0.138071 -0.536067,1.312978 -1.657308,2.456917 -2.97908,3.039388 -0.08507,0.03749 -0.156751,0.07012 -0.159283,0.07252 -0.01359,0.01286 0.02515,-0.0021 0.162251,-0.06264 z m -4.495121,0.0075 c -0.01123,-0.01044 -0.363682,-0.183093 -0.363682,-0.178154 0,0.0066 0.343531,0.181008 0.358157,0.18185 0.0056,3.21e-4 0.0081,-0.0013 0.0055,-0.0037 z m -0.37473,-0.188846 c 0,-0.0029 -0.01989,-0.01544 -0.04419,-0.02784 -0.02431,-0.0124 -0.04419,-0.02008 -0.04419,-0.01706 0,0.003 0.01864,0.01533 0.04143,0.02736 0.04688,0.02475 0.04696,0.02478 0.04696,0.01755 z m -0.09944,-0.05518 c 0,-0.0029 -0.01492,-0.01295 -0.03315,-0.02238 -0.04155,-0.02149 -0.04407,-0.01216 -0.0028,0.01025 0.03472,0.01884 0.03591,0.01924 0.03591,0.01213 z m -0.07734,-0.04409 c 0,-0.0028 -0.01119,-0.01056 -0.02486,-0.01718 -0.02387,-0.01157 -0.02401,-0.01136 -0.0034,0.0051 0.02254,0.01806 0.02827,0.0205 0.02827,0.01205 z m -0.05524,-0.03244 c 0,-0.0024 -0.01659,-0.01422 -0.03686,-0.02618 -0.02027,-0.01196 -0.05011,-0.03043 -0.06629,-0.04103 -0.01619,-0.01061 -0.02943,-0.01661 -0.02943,-0.01334 0,0.0052 0.121503,0.08499 0.129475,0.08499 0.0017,0 0.0031,-0.002 0.0031,-0.0044 z m -0.149708,-0.09319 c -0.0058,-0.0051 -0.06767,-0.0482 -0.137555,-0.09581 C 13.622902,21.96203 13.136093,21.472238 12.73418,20.871498 12.661,20.762118 12.598291,20.670139 12.594824,20.6671 c -0.02765,-0.02423 0.190102,0.305683 0.295854,0.448243 0.277247,0.373744 0.690091,0.788435 1.082747,1.087589 0.154384,0.117622 0.454165,0.321897 0.391671,0.266891 z M 12.567028,20.60899 c -0.01509,-0.02583 -0.04585,-0.08052 -0.06836,-0.121534 -0.04129,-0.07527 -0.06616,-0.105185 -0.03214,-0.03867 0.03578,0.06995 0.116799,0.207161 0.122326,0.207161 0.0031,0 -0.0067,-0.02113 -0.02183,-0.04696 z m -0.260636,-0.501666 c -0.01232,-0.02336 -0.02263,-0.03891 -0.0229,-0.03456 -7.84e-4,0.01271 0.03618,0.08616 0.04096,0.08138 0.0024,-0.0024 -0.0057,-0.02346 -0.01807,-0.04682 z m -0.03865,-0.08845 c -0.0093,-0.01725 -0.01719,-0.02786 -0.01744,-0.02359 -7.48e-4,0.01313 0.02496,0.06443 0.02984,0.05955 0.0025,-0.0025 -0.0031,-0.01871 -0.0124,-0.03595 z m -0.03863,-0.08854 c -0.01302,-0.0224 -0.01617,-0.01523 -0.0055,0.01255 0.0038,0.0099 0.0092,0.01563 0.01206,0.01278 0.0028,-0.0028 -1.04e-4,-0.01424 -0.0066,-0.02534 z m -0.0221,-0.05524 c -0.01303,-0.0224 -0.01617,-0.01523 -0.0055,0.01255 0.0038,0.0099 0.0092,0.01563 0.01206,0.01278 0.0028,-0.0028 -1.04e-4,-0.01425 -0.0066,-0.02534 z m -0.05617,-0.150287 c -0.09917,-0.264015 -0.193416,-0.608053 -0.248862,-0.90844 -0.02876,-0.155829 -0.07045,-0.457491 -0.07373,-0.533515 -0.0017,-0.03976 -0.0019,-0.03994 -0.0062,-0.0058 -0.01225,0.0979 0.07938,0.643071 0.15842,0.942603 0.06064,0.229803 0.197728,0.638795 0.209998,0.626524 0.0024,-0.0024 -0.01547,-0.05698 -0.03965,-0.121356 z m 10.543939,-0.140566 c 0.0054,-0.02218 0.0038,-0.0211 -0.0083,0.0055 -0.0083,0.01823 -0.01814,0.04557 -0.02187,0.06077 -0.0054,0.02218 -0.0038,0.0211 0.0083,-0.0055 0.0083,-0.01823 0.01814,-0.04557 0.02187,-0.06077 z m 0.04524,-0.128278 c 0.0054,-0.02732 0.0041,-0.02635 -0.0089,0.0067 -0.0083,0.02127 -0.0183,0.0511 -0.02215,0.06629 -0.0053,0.02078 -0.0031,0.01911 0.0089,-0.0067 0.0087,-0.0189 0.01869,-0.04873 0.02215,-0.06629 z m 0.04847,-0.158984 c 0,-0.0091 -0.0067,8.28e-4 -0.01489,0.0221 -0.0082,0.02127 -0.01489,0.04613 -0.01489,0.05524 0,0.0091 0.0067,-8.29e-4 0.01489,-0.0221 0.0082,-0.02127 0.01489,-0.04613 0.01489,-0.05524 z m 0.02222,-0.07734 c 0,-0.01045 -0.0035,-0.0084 -0.0095,0.0055 -0.0052,0.01215 -0.0095,0.02956 -0.0095,0.03867 0,0.01045 0.0035,0.0084 0.0095,-0.0055 0.0052,-0.01215 0.0095,-0.02956 0.0095,-0.03867 z m 0.0091,-0.04627 c -0.0035,-0.0088 -0.0061,-0.0062 -0.0067,0.0067 -4.75e-4,0.01165 0.0021,0.01817 0.0058,0.0145 0.0037,-0.0037 0.0041,-0.0132 8.73e-4,-0.02118 z m 0.03481,-0.124986 c -1.1e-4,-0.01215 -0.0071,0.0028 -0.01551,0.03315 -0.0085,0.03038 -0.01495,0.06021 -0.01443,0.06629 0.0016,0.0187 0.03008,-0.07592 0.02994,-0.09944 z m 0.0094,-0.05179 c -0.0035,-0.0088 -0.0061,-0.0062 -0.0067,0.0067 -4.76e-4,0.01165 0.0021,0.01817 0.0058,0.0145 0.0037,-0.0037 0.0041,-0.0132 8.73e-4,-0.02118 z m 0.02339,-0.09184 c 0,-0.0175 -0.0018,-0.01635 -0.0088,0.0055 -0.0049,0.01519 -0.0088,0.03757 -0.0088,0.04972 0,0.0175 0.0018,0.01635 0.0088,-0.0055 0.0049,-0.01519 0.0088,-0.03757 0.0088,-0.04972 z m 0.0095,-0.06353 c -0.0031,-0.0076 -0.0056,-0.0014 -0.0056,0.01381 0,0.01519 0.0025,0.02141 0.0056,0.01381 0.0031,-0.0076 0.0031,-0.02003 0,-0.02762 z m 0.01105,-0.05524 c -0.0031,-0.0076 -0.0056,-0.0014 -0.0056,0.01381 0,0.01519 0.0025,0.02141 0.0056,0.01381 0.0031,-0.0076 0.0031,-0.02003 0,-0.02762 z m 0.01139,-0.06056 c -0.0028,-0.01075 -0.0053,-0.0046 -0.0055,0.0136 -2.21e-4,0.01823 0.0021,0.02703 0.0051,0.01955 0.003,-0.0075 0.0032,-0.0224 4.09e-4,-0.03315 z m 0.02291,-0.118982 c 0,-0.02787 -0.0014,-0.02611 -0.0091,0.01105 -0.01158,0.05597 -0.01106,0.101189 6.3e-4,0.05524 0.0046,-0.01823 0.0085,-0.04806 0.0085,-0.06629 z m 0.01019,-0.09115 c -0.0028,-0.01063 -0.0051,-0.0019 -0.0051,0.01933 0,0.02127 0.0023,0.02997 0.0051,0.01934 0.0028,-0.01063 0.0028,-0.02804 0,-0.03867 z m 0.03067,-0.198396 c 0.0093,-0.08633 0.01625,-0.195711 0.01537,-0.243068 -0.0014,-0.07525 -0.0027,-0.06869 -0.01072,0.052 -0.005,0.07596 -0.01424,0.180368 -0.02048,0.23202 -0.01125,0.09315 -0.0136,0.148297 -0.0054,0.127058 0.0023,-0.0061 0.0119,-0.08168 0.02122,-0.168013 z M 11.815984,18.11779 c -0.0024,-0.02292 -0.0044,-0.0069 -0.0044,0.03566 -4.9e-5,0.04254 0.0019,0.06129 0.0043,0.04168 0.0024,-0.01961 0.0025,-0.05442 9e-5,-0.07734 z m -0.01086,-0.525713 c -0.0019,-0.08015 -0.0034,-0.01149 -0.0034,0.152578 6e-6,0.164071 0.0015,0.229651 0.0034,0.145733 0.0019,-0.08392 0.0019,-0.218158 -1.1e-5,-0.298311 z m 11.203183,0.100581 c -0.0021,-0.04432 -0.0038,-0.01098 -0.0039,0.07409 0,0.08507 0.0017,0.121337 0.0038,0.08058 0.0021,-0.04075 0.0021,-0.110358 0,-0.15468 z m -0.02441,-0.445187 c -0.01049,-0.07917 -0.01423,-0.09457 -0.01074,-0.04419 0.003,0.04254 0.009,0.137002 0.01339,0.209922 0.0077,0.126603 0.0081,0.128596 0.01074,0.04419 0.0015,-0.04861 -0.0045,-0.143078 -0.01339,-0.209922 z M 11.851765,17.020976 c 0.0931,-0.737104 0.322416,-1.442332 0.68258,-2.099223 0.02166,-0.0395 0.03415,-0.06684 0.02777,-0.06077 -0.04155,0.03956 -0.262213,0.493594 -0.359764,0.740252 -0.215826,0.545713 -0.367567,1.213637 -0.387953,1.707666 l -0.0052,0.126392 0.01048,-0.121534 c 0.0058,-0.06684 0.02021,-0.198597 0.0321,-0.292786 z m 11.11195,0.04156 c -0.0026,-0.01374 -0.0049,-0.0051 -0.005,0.01921 -1.21e-4,0.02431 0.002,0.03555 0.0048,0.02499 0.0028,-0.01056 0.0029,-0.03045 2.21e-4,-0.04419 z m -0.01125,-0.08299 c -0.0028,-0.01063 -0.0051,-0.0019 -0.0051,0.01933 0,0.02127 0.0023,0.02997 0.0051,0.01934 0.0028,-0.01064 0.0028,-0.02804 0,-0.03867 z m -0.01866,-0.124296 c -0.0076,-0.04908 -0.01606,-0.08706 -0.01873,-0.08439 -0.0027,0.0027 0.0013,0.04509 0.0088,0.09428 0.0075,0.04919 0.01596,0.08716 0.01873,0.08439 0.0028,-0.0028 -0.0012,-0.0452 -0.0088,-0.09428 z m -0.03867,-0.209923 c -0.01071,-0.05512 -0.02157,-0.09813 -0.02413,-0.09556 -0.0026,0.0026 0.004,0.04986 0.01459,0.105103 0.01059,0.05524 0.02145,0.09824 0.02413,0.09556 0.0027,-0.0027 -0.0039,-0.04998 -0.01459,-0.105103 z m -0.0662,-0.283651 c -0.02202,-0.08371 -0.04297,-0.154813 -0.04656,-0.158007 -0.0036,-0.0032 -0.0033,0.0066 5.3e-4,0.02181 0.0039,0.01519 0.02324,0.09106 0.04303,0.168591 0.01979,0.07753 0.03757,0.136208 0.03951,0.130386 0.0019,-0.0058 -0.01449,-0.07907 -0.03651,-0.162784 z m -0.06187,-0.223577 c -0.0075,-0.02494 -0.01562,-0.04331 -0.0181,-0.04082 -0.0025,0.0025 0.0016,0.02492 0.0091,0.04986 0.0075,0.02494 0.01562,0.04331 0.0181,0.04082 0.0025,-0.0025 -0.0016,-0.02492 -0.0091,-0.04986 z m -0.04871,-0.155684 c -0.01035,-0.03117 -0.02066,-0.05484 -0.0229,-0.0526 -0.0022,0.0022 0.0042,0.02982 0.01422,0.06128 0.01006,0.03146 0.02037,0.05513 0.0229,0.0526 0.0025,-0.0025 -0.0039,-0.03011 -0.01422,-0.06128 z m -0.0674,-0.186721 c -0.01616,-0.0436 -0.03123,-0.07742 -0.03348,-0.07516 -0.0023,0.0023 0.0091,0.03981 0.02519,0.08345 0.01611,0.04364 0.03118,0.07747 0.03348,0.07516 0.0023,-0.0023 -0.009,-0.03985 -0.0252,-0.08345 z m -0.05506,-0.143815 c -0.01013,-0.02532 -0.02023,-0.04422 -0.02244,-0.04201 -0.0022,0.0022 0.0042,0.02484 0.01415,0.0503 0.01,0.02545 0.02009,0.04435 0.02244,0.04201 0.0023,-0.0023 -0.004,-0.02498 -0.01416,-0.0503 z m -0.05555,-0.132275 c -0.01624,-0.03744 -0.0313,-0.0663 -0.03346,-0.06414 -0.0022,0.0022 0.0093,0.03462 0.02548,0.07212 0.01618,0.0375 0.03124,0.06636 0.03346,0.06414 0.0022,-0.0022 -0.0092,-0.03468 -0.02548,-0.07211 z m -0.08038,-0.174107 c -0.02439,-0.04772 -0.0446,-0.08311 -0.0449,-0.07866 -8.29e-4,0.01217 0.08062,0.174044 0.08525,0.16942 0.0022,-0.0022 -0.01596,-0.04304 -0.04035,-0.09076 z m -0.06149,-0.135454 c -0.02427,-0.04693 -0.03214,-0.04329 -0.0094,0.0044 0.0101,0.02119 0.02033,0.03657 0.02273,0.03417 0.0024,-0.0024 -0.0036,-0.01974 -0.01331,-0.03853 z m -0.06248,-0.114274 c -0.151879,-0.302716 -0.445783,-0.734735 -0.712176,-1.046849 -0.146443,-0.171579 -0.454669,-0.477199 -0.623245,-0.617977 -0.387937,-0.32397 -0.801718,-0.589104 -1.221136,-0.782457 -0.173015,-0.07976 -0.370675,-0.160544 -0.377099,-0.154121 -0.0023,0.0023 0.03186,0.01813 0.07596,0.03514 0.04409,0.01701 0.157234,0.06551 0.251423,0.10778 1.061735,0.476506 1.986759,1.340333 2.555751,2.386674 0.08057,0.148158 0.109359,0.189083 0.05052,0.07182 z m -9.644197,-0.434471 c 0.15412,-0.243016 0.293671,-0.432527 0.481994,-0.654554 l 0.072,-0.08488 -0.07125,0.07438 c -0.03919,0.04091 -0.11691,0.13289 -0.172719,0.204398 -0.105306,0.134928 -0.351437,0.497622 -0.403137,0.594053 -0.03823,0.0713 -0.02163,0.04752 0.09311,-0.133398 z m 0.618718,-0.805728 c 0.03301,-0.03342 0.05753,-0.06077 0.05449,-0.06077 -0.003,0 -0.03253,0.02735 -0.06554,0.06077 -0.03301,0.03342 -0.05753,0.06077 -0.05449,0.06077 0.003,0 0.03253,-0.02735 0.06554,-0.06077 z m 0.248592,-0.248592 c 0.03608,-0.03646 0.06311,-0.06629 0.06008,-0.06629 -0.003,0 -0.03504,0.02983 -0.07112,0.06629 -0.03608,0.03646 -0.06311,0.06629 -0.06008,0.06629 0.003,0 0.03504,-0.02983 0.07112,-0.06629 z m 0.339743,-0.291808 c 0.05317,-0.042 0.09668,-0.07863 0.09668,-0.08141 0,-0.01372 -0.288407,0.221237 -0.336981,0.274524 -0.01823,0.02 0.0066,0.0019 0.05524,-0.04019 0.04861,-0.04211 0.131892,-0.110918 0.185063,-0.152917 z m 0.13123,-0.103178 c 0.01374,-0.01752 0.01335,-0.01791 -0.0042,-0.0042 -0.0184,0.01443 -0.02426,0.02351 -0.01516,0.02351 0.0023,0 0.01099,-0.0087 0.01933,-0.01933 z m 0.08698,-0.06503 c 0,-0.003 -0.01492,0.0051 -0.03315,0.01808 -0.01823,0.01298 -0.03315,0.02609 -0.03315,0.02913 0,0.003 0.01492,-0.0051 0.03315,-0.01808 0.01823,-0.01298 0.03315,-0.02609 0.03315,-0.02913 z m 0.226495,-0.150745 c 0.01705,-0.01728 -0.0112,-2.4e-4 -0.118772,0.07165 -0.05317,0.03553 -0.09667,0.06709 -0.09667,0.07013 0,0.0062 0.198085,-0.124178 0.215447,-0.141771 z m 0.06077,-0.03635 c 0,-0.003 -0.0099,-2.03e-4 -0.0221,0.0063 -0.01215,0.0065 -0.0221,0.01431 -0.0221,0.01735 0,0.003 0.0099,2.02e-4 0.0221,-0.0063 0.01215,-0.0065 0.0221,-0.01431 0.0221,-0.01735 z m 0.05524,-0.03315 c 0,-0.003 -0.0099,-2.03e-4 -0.0221,0.0063 -0.01215,0.0065 -0.0221,0.01431 -0.0221,0.01735 0,0.003 0.0099,2.03e-4 0.0221,-0.0063 0.01215,-0.0065 0.0221,-0.01431 0.0221,-0.01735 z m 0.381175,-0.197967 c 0.12761,-0.06278 0.29087,-0.137443 0.3628,-0.16592 0.506355,-0.200463 1.026506,-0.325053 1.614889,-0.38681 0.228198,-0.02395 0.751728,-0.0334 0.972272,-0.01754 0.09723,0.007 0.209093,0.01488 0.248592,0.01753 l 0.07182,0.0048 -0.06077,-0.0098 c -0.196986,-0.03178 -0.722363,-0.04319 -1.027514,-0.02231 -0.674075,0.04612 -1.306717,0.190054 -1.876944,0.42702 -0.181057,0.07524 -0.605857,0.286958 -0.653173,0.325537 -0.01519,0.01239 0.0047,0.0043 0.0442,-0.01792 0.0395,-0.02224 0.176224,-0.09181 0.303835,-0.154588 z m 4.544098,-0.243733 c -0.01978,-0.01978 -0.534875,-0.178526 -0.545337,-0.168064 -0.0024,0.0024 0.05393,0.02054 0.12525,0.04023 0.07132,0.01969 0.191826,0.05748 0.267785,0.08397 0.136976,0.04777 0.163983,0.05555 0.152302,0.04387 z m -0.682633,-0.204642 c -0.06988,-0.01731 -0.149431,-0.03418 -0.176776,-0.03748 -0.02735,-0.0033 0.01989,0.01076 0.104961,0.03125 0.08507,0.02049 0.164623,0.03736 0.176777,0.03748 0.01215,1.28e-4 -0.03508,-0.01393 -0.104962,-0.03125 z m -0.29831,-0.06067 c -0.0395,-0.008 -0.101647,-0.01726 -0.138107,-0.02049 -0.04759,-0.0042 -0.03513,-1.21e-4 0.04419,0.01451 0.126038,0.02325 0.202796,0.02814 0.09391,0.006 z m -0.223604,-0.03453 c -0.01056,-0.0028 -0.03045,-0.0029 -0.04419,-2.23e-4 -0.01374,0.0026 -0.0051,0.0049 0.01921,0.005 0.02431,1.23e-4 0.03555,-0.002 0.02499,-0.0048 z"
       id="path2930"
       inkscape:connector-curvature="0"
       transform="matrix(0.26458333,0,0,0.26458333,32.643292,89.979617)" />
    <path
       style="fill:#cccccc;fill-opacity:1;stroke-width:0.01104854"
       d="m 22.990791,18.04849 c 0,-0.01519 0.0025,-0.02141 0.0056,-0.01381 0.0031,0.0076 0.0031,0.02002 0,0.02762 -0.0031,0.0076 -0.0056,0.0014 -0.0056,-0.01381 z"
       id="path2932"
       inkscape:connector-curvature="0"
       transform="matrix(0.26458333,0,0,0.26458333,32.643292,89.979617)" />
    <path
       style="fill:#cccccc;fill-opacity:1;stroke-width:0.125"
       d="m 15.542735,23.185099 c -2.416512,-0.876225 -3.861679,-2.919956 -3.861679,-5.461123 0,-4.450482 4.701874,-7.18772 8.573144,-4.990934 1.407355,0.798617 2.547715,2.47986 2.827566,4.168709 0.393635,2.37551 -0.998104,4.948326 -3.267098,6.039668 -0.848025,0.407884 -1.057497,0.455386 -2.191872,0.497053 -1.082666,0.03977 -1.367208,0.0051 -2.080061,-0.253373 z"
       id="path2934"
       inkscape:connector-curvature="0"
       transform="matrix(0.26458333,0,0,0.26458333,32.643292,89.979617)" />
  </g>
</svg>
