<?xml version="1.0" standalone="no"?>
<!DOCTYPE svg PUBLIC "-//W3C//DTD SVG 20010904//EN"
 "http://www.w3.org/TR/2001/REC-SVG-20010904/DTD/svg10.dtd">
<svg version="1.0" xmlns="http://www.w3.org/2000/svg"
 width="568.000000pt" height="568.000000pt" viewBox="0 0 568.000000 568.000000"
 preserveAspectRatio="xMidYMid meet">
<metadata>
Created by potrace 1.11, written by Peter Selinger 2001-2013
</metadata>
<g transform="translate(0.000000,568.000000) scale(0.100000,-0.100000)"
fill="#000000" stroke="none">
<path d="M2515 5615 c-33 -17 -65 -60 -86 -118 l-13 -38 -43 48 c-23 26 -43
51 -43 56 0 4 -7 7 -15 7 -8 0 -15 4 -15 9 0 5 -10 13 -22 17 -98 32 -161 -54
-183 -248 -10 -96 -5 -328 11 -448 3 -25 7 -61 9 -80 2 -19 6 -51 10 -70 22
-123 24 -144 20 -148 -2 -2 -7 7 -11 22 -3 14 -10 26 -15 26 -5 0 -9 5 -9 11
0 14 -136 244 -156 264 -8 7 -14 16 -14 19 0 6 -69 106 -80 116 -3 3 -21 25
-41 50 -181 224 -334 272 -373 115 -17 -66 -12 -173 13 -275 26 -103 26 -103
-42 -37 -168 161 -294 201 -345 108 -31 -57 -21 -190 23 -317 12 -35 21 -64
20 -64 -2 0 -36 19 -77 43 -119 70 -207 104 -263 102 -33 -1 -83 -28 -93 -50
-14 -30 -8 -112 13 -170 32 -93 172 -328 242 -405 29 -31 24 -35 -23 -15 -168
72 -310 108 -412 106 -121 -2 -161 -68 -110 -179 12 -26 28 -53 35 -60 7 -7
13 -16 13 -20 0 -9 46 -62 113 -130 l52 -54 -54 7 c-30 4 -63 9 -75 11 -12 3
-58 5 -104 5 -146 1 -208 -18 -241 -72 -16 -26 -17 -36 -8 -67 6 -20 16 -40
22 -44 6 -5 6 -8 0 -8 -8 0 118 -125 157 -155 29 -23 185 -120 217 -136 l34
-16 -84 -12 c-46 -7 -100 -15 -119 -18 -64 -10 -205 -54 -245 -78 -55 -32 -76
-58 -80 -98 -5 -58 26 -95 141 -163 17 -10 15 -13 -17 -28 -77 -36 -123 -112
-97 -160 21 -40 77 -81 150 -111 71 -29 77 -31 98 -34 23 -3 6 -18 -51 -44
-34 -16 -86 -53 -116 -82 -52 -51 -54 -54 -49 -96 3 -24 5 -45 5 -46 1 -2 20
-16 43 -33 35 -26 57 -35 133 -56 45 -13 136 -26 205 -29 36 -2 67 -5 70 -5 3
-1 38 -2 78 -2 39 -1 72 -3 72 -7 0 -3 -36 -26 -80 -51 -44 -25 -80 -48 -80
-52 0 -5 -4 -8 -10 -8 -16 0 -171 -114 -226 -167 -54 -52 -106 -124 -111 -154
-1 -10 -3 -22 -4 -26 -7 -43 32 -87 91 -103 42 -11 150 -14 215 -5 81 11 108
15 116 21 20 12 7 -14 -26 -51 -20 -22 -43 -53 -52 -70 -9 -16 -19 -32 -22
-35 -15 -13 -32 -85 -27 -114 11 -59 59 -83 156 -81 36 1 79 5 95 9 17 3 39 8
50 11 45 10 123 34 172 53 29 11 53 18 53 16 0 -2 -20 -36 -45 -75 -58 -89
-127 -228 -150 -298 -40 -122 -15 -214 61 -223 36 -4 168 33 188 53 22 21 24
6 7 -44 -25 -73 -21 -152 10 -182 65 -63 188 -24 397 124 50 36 92 69 92 73 0
4 5 8 11 8 7 0 22 11 35 26 22 23 29 23 24 -1 -1 -5 -4 -26 -6 -45 -2 -19 -6
-51 -10 -70 -14 -71 -8 -283 9 -322 32 -72 91 -95 154 -60 36 19 104 81 144
130 l26 32 1 -112 c1 -127 6 -175 26 -253 29 -115 96 -159 173 -115 99 57 230
297 320 584 13 45 27 88 31 96 8 22 9 28 11 47 2 30 13 5 16 -39 13 -179 79
-450 138 -561 93 -177 213 -148 287 68 11 33 22 68 25 80 2 11 11 52 19 90 8
39 17 92 21 120 3 27 8 51 9 53 2 1 9 -12 16 -30 52 -131 125 -277 162 -322
63 -78 102 -106 146 -106 66 0 115 79 136 219 12 79 13 358 2 436 -2 17 -7 59
-10 95 -4 36 -9 74 -11 85 -6 24 -11 30 84 -113 35 -54 82 -122 104 -152 44
-58 225 -246 236 -244 3 1 15 -5 27 -13 12 -7 41 -15 66 -18 38 -4 50 0 71 19
14 13 30 42 36 64 13 48 7 184 -13 277 -35 163 -141 447 -243 650 -81 161 -83
169 -30 115 46 -47 146 -136 194 -173 15 -12 38 -31 50 -42 48 -44 235 -177
320 -228 78 -48 219 -114 258 -122 108 -22 166 -9 186 41 23 63 -22 204 -104
322 -18 26 -41 60 -51 76 l-18 29 23 -7 c32 -9 55 -15 79 -20 11 -3 24 -7 28
-10 4 -2 27 -7 52 -11 25 -4 48 -9 53 -12 4 -3 50 -6 101 -8 136 -6 186 14
205 82 10 34 -12 94 -55 150 l-25 33 63 1 c140 2 196 30 202 101 9 98 -158
258 -436 419 l-99 57 163 -3 c271 -4 403 21 474 87 32 30 36 44 27 91 -5 27
-68 100 -108 124 -83 51 -121 70 -270 134 -56 24 -322 105 -372 113 -34 5 -21
16 20 17 54 2 60 2 142 13 73 9 103 14 175 26 30 6 69 13 85 15 17 3 38 8 47
11 10 3 29 7 43 10 43 8 181 53 237 78 106 48 168 111 168 173 0 21 -33 61
-75 89 -50 34 -182 75 -290 90 -16 2 -40 6 -52 8 -13 3 -64 8 -115 12 -51 3
-94 7 -96 9 -1 1 33 19 75 40 244 120 344 242 266 324 -60 63 -277 90 -533 66
-41 -3 -93 -8 -115 -10 -22 -2 -51 -7 -65 -10 -14 -3 -43 -8 -65 -11 -36 -5
-38 -4 -19 8 53 33 109 72 128 89 11 11 25 19 32 19 7 0 14 3 16 8 2 4 28 26
58 50 239 184 372 347 366 442 -4 45 -23 68 -72 85 -47 16 -158 11 -249 -11
-12 -3 -15 -2 -9 3 18 13 51 115 49 148 -3 45 -14 64 -46 81 -104 53 -342 -34
-679 -250 -52 -33 -99 -64 -105 -68 -116 -89 -155 -116 -155 -109 0 5 22 48
49 95 90 156 223 438 223 473 0 4 5 17 10 28 43 79 67 280 40 335 -50 103
-187 60 -367 -117 -91 -89 -177 -185 -240 -268 -14 -19 -14 -17 -9 20 3 22 7
47 9 55 3 8 7 33 10 55 3 22 7 49 10 60 9 44 18 175 18 260 0 116 -25 206 -65
240 -85 72 -197 -17 -345 -275 -39 -67 -43 -71 -44 -45 -3 81 -32 227 -59 298
-35 92 -71 131 -132 141 -57 9 -150 -110 -203 -261 -11 -29 -23 -53 -27 -53
-4 0 -7 3 -6 8 8 24 -83 234 -120 277 -30 35 -74 65 -96 65 -11 0 -34 -7 -51
-15z m1190 -2715 c3 -5 -1 -10 -9 -10 -9 0 -16 5 -16 10 0 6 4 10 9 10 6 0 13
-4 16 -10z"/>
</g>
</svg>
